<?xml version="1.0" encoding="UTF-8"?>
<svg width="229px" height="185px" viewBox="0 0 229 185" version="1.1" xmlns="http://www.w3.org/2000/svg" xmlns:xlink="http://www.w3.org/1999/xlink">
    <title>logo-sm</title>
    <g id="Page-1" stroke="none" stroke-width="1" fill="none" fill-rule="evenodd">
        <g id="Artboard-Copy-4" transform="translate(-47.000000, -37.000000)" fill-rule="nonzero">
            <g id="Group" transform="translate(47.000000, 37.000000)">
                <polygon id="Rectangle" fill="#F968C9" opacity="0.190685454" points="0 142 0 43.0132471 83.5311549 0 166.000459 44 166.000459 141.509231 82 185"></polygon>
                <path d="M179.206154,46.5092308 C192.276923,46.5092308 203.396154,51.1384615 212.563846,60.3969231 C221.913077,69.6553846 226.587692,80.7746154 226.587692,93.7546154 C226.587692,103.83 223.637692,112.952308 217.737692,121.121538 L217.737692,121.121538 L226.587692,129.835385 L215.286923,141 L206.573077,132.286154 L206.033159,132.660899 C197.916047,138.2203 188.973712,141 179.206154,141 C177.210192,141 175.259738,140.892053 173.35479,140.676159 L173.355311,124.708189 C175.241179,125.040166 177.19146,125.206154 179.206154,125.206154 C187.829231,125.206154 195.226923,122.165385 201.399231,116.083846 C207.571538,109.820769 210.657692,102.377692 210.657692,93.7546154 C210.657692,85.1315385 207.571538,77.7338462 201.399231,71.5615385 C195.226923,65.3892308 187.829231,62.3030769 179.206154,62.3030769 C170.583077,62.3030769 163.14,65.3892308 156.876923,71.5615385 C150.795385,77.7338462 147.754615,85.1315385 147.754615,93.7546154 C147.754615,99.1714287 148.95452,104.122607 151.354329,108.608151 L151.354879,131.940769 C149.447213,130.502532 147.61174,128.893045 145.848462,127.112308 C136.59,117.944615 131.960769,106.825385 131.960769,93.7546154 C131.960769,80.7746154 136.59,69.6553846 145.848462,60.3969231 C154.925385,51.1384615 166.044615,46.5092308 179.206154,46.5092308 Z" id="GQ" stroke="#C00B84" stroke-width="3" fill="#C00B84"></path>
                <path d="M87.2453846,141 C91.33,141 95.2784615,140.500769 99.0907692,139.502308 C102.903077,138.503846 106.488462,137.074231 109.846923,135.213462 C113.205385,133.352692 116.314231,131.106154 119.173462,128.473846 C122.032692,125.841538 124.551538,122.936923 126.73,119.76 L126.73,119.76 L126.73,85.9938462 L87.2453846,85.9938462 L87.2453846,101.651538 L110.936154,101.651538 L110.936154,114.586154 C107.940769,117.944615 104.423462,120.554231 100.384231,122.415 C96.345,124.275769 91.9653846,125.206154 87.2453846,125.206154 C78.6223077,125.206154 71.1792308,122.165385 64.9161538,116.083846 C58.8346154,109.820769 55.7938462,102.377692 55.7938462,93.7546154 C55.7938462,85.1315385 58.8346154,77.7338462 64.9161538,71.5615385 C71.1792308,65.3892308 78.6223077,62.3030769 87.2453846,62.3030769 C95.9592308,62.3030769 103.356923,65.3892308 109.438462,71.5615385 L109.438462,71.5615385 L120.739231,60.3969231 C116.382308,56.04 111.344615,52.6361538 105.626154,50.1853846 C99.9076923,47.7346154 93.7807692,46.5092308 87.2453846,46.5092308 C74.1746154,46.5092308 63.0553846,51.1384615 53.8876923,60.3969231 C44.6292308,69.6553846 40,80.7746154 40,93.7546154 C40,106.825385 44.6292308,117.944615 53.8876923,127.112308 C63.0553846,136.370769 74.1746154,141 87.2453846,141 Z" id="Path" stroke="#C00B84" stroke-width="3" fill="#C00B84"></path>
            </g>
        </g>
    </g>
</svg>